<?xml version="1.0" standalone="no"?>
<!DOCTYPE svg PUBLIC "-//W3C//DTD SVG 20010904//EN"
 "http://www.w3.org/TR/2001/REC-SVG-20010904/DTD/svg10.dtd">
<svg version="1.0" xmlns="http://www.w3.org/2000/svg"
 width="1127.000000pt" height="1129.000000pt" viewBox="0 0 1127.000000 1129.000000"
 preserveAspectRatio="xMidYMid meet">

<g transform="translate(0.000000,1129.000000) scale(0.100000,-0.100000)"
fill="#000000" stroke="none">
<path d="M6857 10813 c-4 -3 -7 -16 -7 -27 0 -22 -64 -281 -97 -396 -36 -122
-154 -324 -257 -435 l-61 -68 -48 7 -48 7 33 22 c18 13 47 43 63 69 19 28 44
52 68 63 32 14 38 21 35 43 -2 20 -14 32 -43 47 -47 24 -212 75 -243 75 -30 0
-28 14 5 36 16 10 22 19 16 21 -20 7 -82 -46 -108 -91 -69 -120 -158 -428
-180 -624 -11 -92 -18 -128 -27 -139 -5 -6 -8 -17 -7 -25 2 -7 -3 -44 -10 -81
-12 -63 -12 -69 4 -81 19 -14 13 -36 -11 -36 -8 0 -14 -6 -14 -14 0 -11 9 -13
38 -9 89 15 87 12 92 89 l5 69 130 7 c78 4 162 15 209 27 90 24 100 25 91 11
-10 -16 10 -11 31 8 10 9 43 32 71 51 29 18 51 37 48 41 -3 4 7 16 22 26 50
32 124 108 150 151 18 31 31 43 48 43 13 0 27 5 30 10 3 6 17 10 29 10 21 0
26 -11 59 -137 38 -145 134 -429 167 -499 11 -22 20 -44 20 -48 0 -7 15 -42
82 -189 61 -134 176 -354 221 -422 78 -118 117 -186 112 -195 -3 -5 1 -12 8
-17 14 -8 159 -195 154 -199 -1 -1 -72 -4 -157 -8 -87 -3 -179 -13 -210 -21
-30 -9 -84 -20 -120 -25 -122 -19 -234 -47 -238 -59 -3 -9 2 -11 14 -8 11 3
60 8 109 12 50 3 99 9 111 11 12 3 28 -1 37 -10 8 -9 23 -16 31 -16 9 0 16 -4
16 -8 0 -9 -143 -79 -230 -112 -117 -44 -215 -103 -303 -181 -66 -57 -58 -67
13 -19 33 23 64 39 69 36 5 -3 25 5 45 19 20 13 43 22 51 19 14 -6 14 -8 -1
-19 -10 -7 -13 -15 -7 -18 11 -7 69 12 180 59 75 32 112 37 98 14 -9 -15 -192
-100 -222 -104 -58 -6 -217 -122 -238 -173 -8 -20 -13 -38 -11 -40 2 -3 19 3
37 12 28 15 135 55 146 55 17 0 -19 -26 -70 -49 -34 -16 -55 -30 -46 -30 9 -1
50 14 90 32 64 29 169 55 169 42 0 -5 -103 -55 -114 -55 -20 0 -136 -65 -136
-77 0 -19 13 -16 86 18 36 17 67 29 69 27 1 -2 -1 -68 -4 -147 -6 -146 0 -205
33 -346 29 -119 48 -178 77 -235 40 -80 239 -284 239 -246 0 3 -21 25 -47 49
-38 36 -47 51 -48 83 -3 55 -2 55 -32 43 -14 -5 -33 -7 -42 -4 -12 5 -8 11 17
26 26 17 30 24 22 40 -12 22 -23 23 -52 8 -15 -8 -23 -8 -32 1 -8 9 -3 18 20
36 l31 25 -14 42 c-20 55 -12 182 14 234 10 23 38 51 67 71 56 37 66 39 66 12
0 -24 34 -43 62 -34 14 4 18 2 14 -5 -12 -19 16 -12 71 19 29 17 55 30 58 30
2 0 -9 -21 -25 -47 -17 -26 -30 -54 -30 -63 0 -9 -11 -23 -25 -30 -19 -10 -24
-19 -19 -34 9 -30 24 -46 43 -46 12 0 25 -30 51 -113 25 -80 44 -122 65 -146
l31 -33 78 62 c79 64 146 144 172 205 19 47 17 106 -6 195 -24 90 -24 96 -5
103 25 10 136 -13 193 -40 86 -41 127 -84 152 -159 25 -74 23 -102 -12 -219
-42 -137 -83 -196 -185 -266 -23 -17 -43 -37 -43 -47 0 -9 -12 -27 -27 -39
l-28 -23 40 6 c22 4 48 11 57 15 33 18 168 129 168 140 0 6 27 41 60 77 129
141 214 304 234 441 3 23 8 47 12 52 3 6 6 59 5 119 0 103 1 110 19 110 11 0
20 3 20 8 1 28 18 31 70 11 83 -32 112 -48 150 -86 19 -20 64 -54 100 -77 l65
-41 0 -70 c0 -38 -3 -85 -7 -104 -7 -30 -6 -32 8 -20 13 11 14 9 8 -17 -7 -31
-48 -176 -59 -209 -6 -19 -6 -20 9 -1 8 10 17 24 19 30 2 6 8 8 12 4 4 -4 -15
-44 -43 -88 -28 -44 -48 -80 -45 -80 16 0 123 127 123 146 0 6 18 28 39 47 65
58 176 236 232 372 l13 30 4 -29 c2 -16 -1 -33 -7 -39 -18 -18 -13 -31 6 -16
12 10 15 10 9 1 -9 -15 -74 -266 -86 -336 -14 -73 -93 -309 -167 -496 -22 -58
-157 -343 -185 -395 -7 -11 -17 -30 -23 -42 -7 -13 -15 -19 -19 -15 -4 4 -7 2
-6 -3 5 -21 0 -36 -10 -30 -6 4 -7 -1 -3 -11 5 -13 3 -15 -7 -9 -8 5 -11 4 -7
-1 3 -6 -23 -48 -59 -94 -66 -87 -75 -102 -48 -79 92 76 294 437 409 729 68
173 163 493 212 715 19 88 48 220 64 293 31 144 54 317 64 477 3 55 9 125 12
155 2 30 6 244 8 475 4 517 -9 725 -80 1325 -23 196 -35 258 -56 283 l-18 22
0 -25 c-1 -14 8 -79 19 -145 10 -65 17 -121 15 -123 -2 -2 -6 13 -10 34 -8 54
-52 187 -85 259 -18 40 -41 72 -68 94 -23 18 -42 29 -42 24 0 -4 13 -55 30
-112 16 -57 50 -192 75 -300 26 -108 55 -227 65 -266 10 -38 24 -108 31 -155
7 -47 14 -79 16 -72 3 6 10 9 15 5 8 -4 10 35 6 133 l-6 139 18 -140 c62 -473
60 -1344 -6 -1875 -2 -19 -9 -80 -14 -135 -16 -151 -60 -277 -60 -172 0 27 -6
49 -15 57 -8 7 -15 17 -15 22 0 6 7 5 15 -2 13 -11 15 -8 15 18 0 33 6 28
-203 197 -47 38 -84 71 -82 74 3 2 21 -9 41 -25 21 -16 60 -46 88 -68 28 -21
75 -61 104 -89 36 -36 52 -46 52 -34 0 23 -108 130 -189 187 -35 25 -81 60
-103 77 -22 18 -71 52 -109 75 -38 24 -69 45 -69 48 0 3 34 18 75 33 41 16 75
34 75 41 0 9 -42 18 -142 30 -163 19 -137 3 -261 165 -91 118 -212 295 -300
436 -119 193 -230 378 -265 445 -54 101 -147 291 -163 330 -8 19 -29 63 -46
97 -39 75 -68 165 -83 253 -5 36 -13 80 -16 98 -3 17 -9 32 -14 32 -10 0 -6
-32 26 -200 14 -69 27 -145 30 -170 19 -158 103 -533 159 -710 13 -41 35 -120
50 -175 25 -95 44 -156 60 -200 6 -14 5 -17 -3 -10 -22 21 -249 491 -304 630
-11 28 -25 64 -33 80 -7 17 -27 65 -46 107 -18 43 -34 76 -36 74 -4 -4 75
-226 115 -322 50 -120 61 -144 145 -314 45 -91 93 -190 107 -220 58 -127 183
-330 303 -490 65 -87 209 -232 275 -278 56 -38 57 -55 2 -27 -18 9 -34 14 -37
11 -6 -6 -144 79 -223 137 -74 54 -268 245 -338 332 -31 39 -63 77 -73 85 -9
8 -46 58 -83 110 -36 52 -69 100 -74 105 -42 56 -89 128 -141 220 -35 61 -79
136 -97 168 -19 32 -34 60 -34 62 0 3 -16 37 -36 77 -83 169 -201 457 -254
623 -90 279 -112 356 -106 372 4 9 0 26 -8 38 -20 31 -40 113 -70 295 -45 279
-65 470 -54 525 13 71 36 220 34 223 -2 1 -6 -1 -9 -5z m-52 -600 c8 -60 55
-263 61 -263 2 0 2 19 -1 43 -9 66 10 15 33 -92 l20 -93 -21 7 c-33 10 -104
22 -177 29 -36 4 -88 11 -117 17 -28 5 -64 12 -80 13 -15 2 -32 4 -37 5 -5 0
2 12 15 24 94 92 242 271 267 323 8 19 19 34 23 34 4 0 11 -21 14 -47z m-410
-68 c141 -48 131 -67 -33 -60 -124 4 -202 14 -202 24 0 3 11 23 24 42 l25 36
68 -13 c38 -7 91 -20 118 -29z m-84 -80 c52 -4 101 -10 107 -14 8 -5 6 -16 -9
-40 -14 -23 -39 -41 -86 -63 -67 -30 -111 -33 -188 -14 -11 2 -23 5 -26 5 -5
1 7 44 36 129 3 9 16 11 37 8 18 -3 76 -8 129 -11z m-156 -171 c28 -9 79 -17
115 -19 36 -2 97 -8 135 -13 39 -6 120 -18 180 -26 262 -38 317 -49 335 -71
32 -39 -72 -41 -530 -10 -52 3 -67 2 -50 -5 14 -5 116 -16 228 -25 112 -9 213
-20 225 -24 21 -8 18 -12 -40 -69 -91 -89 -174 -138 -323 -193 -60 -22 -79
-24 -252 -23 -104 0 -190 3 -193 6 -3 3 8 65 25 139 17 74 38 166 46 204 23
106 34 145 42 145 4 0 30 -7 57 -16z m3114 -278 c2 -45 -6 -27 -12 29 -4 34
-3 42 3 25 4 -14 8 -38 9 -54z m8 -103 c-3 -10 -5 -2 -5 17 0 19 2 27 5 18 2
-10 2 -26 0 -35z m-2697 -59 c0 -7 -66 -34 -82 -33 -7 0 7 9 32 19 53 22 50
21 50 14z m-507 -81 c-7 -2 -21 -2 -30 0 -10 3 -4 5 12 5 17 0 24 -2 18 -5z
m1761 -454 c54 -107 208 -355 267 -430 16 -21 82 -115 147 -211 97 -144 188
-276 292 -421 14 -20 14 -20 -15 -13 -16 4 -61 12 -100 16 -99 13 -156 26
-164 37 -7 12 -89 39 -143 49 -26 4 -45 16 -62 39 -29 37 -81 170 -120 300
-14 50 -37 126 -50 170 -53 173 -76 276 -91 407 -8 76 -18 144 -21 153 -3 8
-4 15 -1 15 3 0 30 -50 61 -111z m-144 -959 c0 -5 -6 -10 -14 -10 -8 0 -18 5
-21 10 -3 6 3 10 14 10 12 0 21 -4 21 -10z m43 -7 c-7 -2 -19 -2 -25 0 -7 3
-2 5 12 5 14 0 19 -2 13 -5z m1067 -191 c0 -5 -17 -14 -37 -21 -21 -7 -43 -14
-49 -17 -6 -2 -11 2 -11 11 0 9 9 15 23 15 13 0 26 5 29 10 7 12 45 13 45 2z
m-1615 -11 c-6 -5 -23 -12 -40 -16 l-30 -6 25 15 c28 17 60 22 45 7z m174
-175 c-2 -2 -17 -6 -34 -10 -22 -5 -26 -4 -15 4 14 9 59 15 49 6z m1537 -24
c-4 -3 -14 2 -24 12 -16 18 -16 18 6 6 13 -6 21 -14 18 -18z m-1609 2 c-3 -3
-12 -4 -19 -1 -8 3 -5 6 6 6 11 1 17 -2 13 -5z m333 -139 c0 -12 -36 -83 -53
-101 -18 -21 -18 -22 53 -73 50 -36 70 -57 66 -68 -3 -8 -6 -18 -6 -22 0 -21
-193 -101 -297 -124 -28 -6 -33 8 -27 80 6 80 -9 109 -57 105 -50 -4 -57 19
-17 53 69 58 338 178 338 150z m120 -403 c0 -4 -13 -29 -30 -55 -20 -31 -38
-48 -57 -52 -15 -4 -44 -13 -63 -20 -35 -14 -108 -35 -122 -35 -5 0 -8 7 -8
15 0 17 41 45 160 109 81 43 120 56 120 38z m1209 -45 c-12 -43 -22 -50 -13
-9 9 42 14 55 19 50 2 -2 0 -21 -6 -41z m12 -184 c-12 -20 -14 -14 -5 12 4 9
9 14 11 11 3 -2 0 -13 -6 -23z"/>
<path d="M8070 8004 c0 -5 7 -19 15 -30 8 -10 15 -14 15 -8 0 5 -7 19 -15 30
-8 10 -15 14 -15 8z"/>
<path d="M3256 10683 c-20 -49 -51 -116 -67 -150 -17 -34 -29 -72 -27 -85 3
-17 9 -9 26 37 21 56 66 166 99 244 7 18 12 35 10 37 -2 2 -21 -35 -41 -83z"/>
<path d="M6228 10460 c-45 -85 -51 -112 -16 -72 28 31 84 162 70 162 -4 0 -28
-40 -54 -90z"/>
<path d="M4097 10530 c-64 -8 -45 -25 24 -22 35 1 99 -4 142 -11 l77 -14 0 23
c0 22 -5 24 -47 25 -132 4 -161 4 -196 -1z"/>
<path d="M3885 10504 c-55 -8 -118 -18 -140 -23 l-40 -9 35 -1 c20 -1 74 4
120 10 47 6 96 12 110 14 14 1 31 3 38 4 6 0 12 6 12 11 0 12 -4 12 -135 -6z"/>
<path d="M4370 10490 c0 -18 4 -20 23 -14 12 3 24 8 26 10 6 6 -1 11 -26 18
-19 6 -23 4 -23 -14z"/>
<path d="M4590 10473 c-14 -3 -32 -11 -40 -18 -8 -7 -33 -16 -55 -19 -52 -9
-119 -46 -123 -70 -3 -15 10 -11 75 23 66 34 88 41 137 41 l58 0 -47 -52 c-26
-29 -59 -77 -73 -105 -26 -52 -27 -53 -72 -54 -45 -1 -45 -1 -12 -10 17 -5 32
-14 32 -20 0 -6 -13 -43 -29 -82 -53 -131 -43 -124 41 31 129 236 183 299 273
317 23 5 33 10 22 12 -9 3 -33 -1 -52 -7 -29 -9 -41 -9 -66 4 -18 9 -35 15
-38 15 -3 -1 -17 -4 -31 -6z"/>
<path d="M3470 10450 c-8 -5 -12 -11 -9 -14 8 -8 79 6 79 15 0 12 -51 11 -70
-1z"/>
<path d="M3252 10438 c-7 -7 -12 -14 -12 -17 0 -12 144 4 148 17 5 16 -119 17
-136 0z"/>
<path d="M3110 10437 c-6 -6 -61 -14 -230 -32 -206 -23 -329 -41 -337 -48 -12
-13 91 -7 252 13 88 11 194 23 235 26 77 6 95 13 88 34 -2 6 -6 9 -8 7z"/>
<path d="M4865 10410 c3 -5 29 -10 57 -10 64 0 60 5 -10 14 -37 5 -52 4 -47
-4z"/>
<path d="M3093 10323 c-17 -37 -41 -92 -53 -121 -15 -34 -30 -54 -44 -57 -11
-3 -84 -19 -161 -35 -168 -34 -159 -38 22 -8 73 12 135 19 138 16 3 -3 -2 -23
-11 -44 -9 -22 -21 -48 -25 -59 -24 -56 -108 -326 -114 -369 -6 -35 -13 -50
-26 -53 -11 -3 -19 -9 -19 -14 0 -5 7 -6 16 -2 15 5 16 0 11 -43 l-6 -49 15
50 c8 28 22 79 29 115 33 153 141 447 235 639 17 35 30 72 28 83 -2 13 -14 -3
-35 -49z"/>
<path d="M5061 10386 c5 -6 230 -40 364 -56 50 -6 104 -13 120 -16 17 -4 27
-3 23 1 -9 10 -120 30 -307 55 -139 19 -209 25 -200 16z"/>
<path d="M4295 10341 c-16 -10 -46 -36 -65 -56 l-35 -38 60 33 c87 48 95 54
95 67 0 18 -20 16 -55 -6z"/>
<path d="M3323 10298 c-5 -7 -16 -29 -23 -48 -7 -19 -21 -44 -30 -55 -9 -11
-36 -55 -59 -98 -34 -63 -41 -86 -39 -120 l3 -42 17 35 c17 35 17 34 12 -65
-3 -55 -7 -118 -10 -140 -9 -70 13 -25 29 60 48 254 82 404 99 438 20 38 20
60 1 35z"/>
<path d="M4280 10280 c-19 -12 -13 -16 33 -23 42 -6 54 16 15 27 -29 7 -30 7
-48 -4z"/>
<path d="M4380 10260 c0 -12 28 -25 36 -17 3 3 -4 10 -15 17 -15 7 -21 7 -21
0z"/>
<path d="M6085 10230 c4 -6 11 -8 16 -5 14 9 11 15 -7 15 -8 0 -12 -5 -9 -10z"/>
<path d="M4130 10192 c-37 -25 -59 -54 -59 -77 0 -16 6 -12 35 20 31 36 59 76
52 74 -2 0 -14 -8 -28 -17z"/>
<path d="M5252 10103 c-25 -79 -38 -131 -28 -122 8 8 57 171 54 181 -2 5 -13
-22 -26 -59z"/>
<path d="M3993 10013 c-29 -48 -64 -115 -79 -148 -68 -154 -214 -564 -214
-602 0 -10 -9 -35 -20 -56 -11 -20 -20 -44 -20 -52 0 -9 -6 -18 -14 -21 -19
-7 -27 -30 -19 -51 6 -14 9 -12 20 12 24 53 6 -108 -21 -189 -14 -39 -29 -111
-35 -161 -22 -185 -44 -445 -50 -584 -6 -136 -7 -144 -28 -152 -14 -5 -25 -3
-33 6 -8 10 -19 11 -43 4 -45 -13 -57 -10 -22 6 17 7 33 11 38 8 9 -6 9 1 -3
31 -5 14 -14 26 -20 26 -6 0 -8 -5 -5 -10 4 -7 -2 -9 -17 -5 -13 3 -59 -7
-110 -25 -49 -16 -105 -30 -125 -29 -34 0 -35 1 -13 8 14 5 48 14 75 20 79 19
135 42 135 57 0 8 4 14 10 14 5 0 -2 26 -16 58 -39 87 -39 94 1 18 20 -37 38
-66 40 -64 3 2 -16 58 -41 124 -75 197 -120 396 -144 639 -6 61 -15 133 -19
160 -8 47 -9 44 -12 -45 -2 -81 -3 -86 -6 -32 -4 60 -5 63 -26 57 -12 -4 -80
-27 -150 -51 -154 -53 -160 -53 -146 -18 5 15 7 29 5 32 -6 5 -7 2 -24 -53 -5
-16 -13 -28 -18 -25 -10 6 -10 -4 -14 230 -2 144 -4 165 -11 116 -5 -32 -10
-126 -11 -208 l-3 -151 -150 -51 c-82 -29 -177 -69 -210 -88 -61 -37 -264
-221 -255 -231 6 -7 119 79 172 130 35 34 42 37 110 39 52 1 110 14 203 42 71
23 131 40 132 39 1 -2 6 -50 11 -107 8 -95 10 -99 12 -45 2 33 4 85 5 115 3
114 5 140 15 140 5 0 7 -13 4 -30 -4 -16 -2 -36 4 -43 6 -7 11 -26 10 -42 0
-36 40 -233 53 -257 23 -43 5 -220 -25 -240 -20 -14 -24 -9 -41 50 -23 78 -26
83 -21 39 6 -49 37 -112 55 -112 8 0 23 13 35 28 18 25 21 42 21 130 -1 65 -9
138 -23 202 -11 55 -25 124 -30 152 l-9 53 36 6 c20 4 63 17 96 29 33 13 78
25 100 28 22 3 52 10 67 16 32 12 38 7 38 -38 0 -20 7 -76 16 -126 13 -80 27
-141 67 -295 16 -59 15 -65 -5 -65 -9 0 -76 -47 -149 -105 -211 -167 -227
-179 -369 -273 -74 -50 -171 -118 -215 -151 -86 -66 -94 -69 -450 -201 -115
-43 -248 -93 -295 -110 -47 -18 -112 -41 -145 -50 -33 -10 -71 -27 -85 -39
-28 -23 -208 -98 -279 -116 -24 -6 -53 -22 -65 -34 -25 -27 -114 -76 -137 -76
-9 0 -35 -6 -57 -14 l-40 -14 11 31 c18 59 22 66 107 208 25 41 48 76 52 77 5
2 8 8 8 12 0 8 17 38 125 220 61 102 76 132 64 128 -6 -2 -62 -87 -124 -188
-226 -370 -275 -440 -375 -540 -60 -60 -122 -111 -169 -138 -86 -51 -187 -130
-196 -154 -3 -9 -12 -15 -19 -12 -6 2 -38 -7 -69 -21 -32 -14 -66 -25 -77 -25
-10 0 -21 -4 -24 -8 -2 -4 -49 -23 -104 -41 l-99 -34 -26 -171 c-37 -231 -56
-410 -64 -596 l-6 -154 42 36 c24 20 80 55 125 78 98 50 131 50 161 3 11 -18
24 -32 29 -33 4 0 35 25 69 56 33 31 80 65 104 77 l44 22 -5 50 c-6 47 -9 69
-21 140 -3 17 -16 120 -30 230 -14 110 -30 235 -36 278 -8 54 -8 82 -1 89 13
13 17 -2 32 -107 6 -44 18 -123 26 -175 8 -52 23 -171 34 -265 12 -93 23 -184
26 -201 l6 -31 130 31 130 30 -6 31 c-5 26 -25 170 -56 400 -5 39 -14 97 -20
130 -12 72 -12 99 -1 70 5 -11 18 -78 30 -150 12 -71 30 -175 41 -230 10 -55
21 -127 25 -160 9 -88 12 -95 45 -95 28 0 79 -46 81 -73 0 -7 3 -28 6 -47 5
-28 6 -438 2 -715 -1 -27 4 -84 10 -125 5 -41 22 -181 37 -310 26 -231 34
-282 40 -250 13 74 47 280 64 390 11 74 25 164 30 200 21 131 40 297 42 358 3
72 16 85 16 15 0 -27 5 -138 11 -248 22 -400 36 -1057 25 -1190 l-9 -110 -5
85 -5 85 -43 -157 -44 -157 16 -133 c9 -73 21 -158 26 -188 9 -53 40 -311 40
-338 0 -7 4 -11 9 -8 11 7 22 143 26 321 1 72 6 240 10 375 23 717 1 1538 -50
1961 -10 82 -14 179 -6 179 4 0 22 -21 39 -47 50 -77 152 -188 223 -245 37
-29 85 -77 107 -106 42 -56 96 -102 120 -102 9 0 -8 24 -37 54 -28 30 -51 60
-51 67 0 7 -11 24 -24 38 -61 65 -184 359 -236 565 -39 150 -89 446 -77 446 3
0 11 -34 18 -75 13 -83 23 -98 45 -66 30 42 63 23 103 -56 24 -48 47 -60 30
-17 -5 15 -8 29 -5 31 4 4 9 -8 45 -105 41 -111 195 -376 260 -448 20 -22 63
-78 96 -124 76 -105 362 -388 480 -475 22 -16 51 -40 65 -53 14 -12 48 -39 76
-58 51 -35 52 -36 38 -62 -8 -15 -14 -34 -14 -42 0 -42 64 -88 153 -111 54
-13 89 -7 115 22 19 20 20 15 21 -293 2 -396 -14 -661 -64 -1068 -11 -92 -46
-301 -59 -350 -8 -30 -19 -89 -26 -130 -21 -132 -113 -455 -132 -467 -7 -4 -9
4 -4 23 10 43 -7 12 -48 -89 -19 -47 -41 -101 -50 -119 -8 -18 -26 -60 -40
-94 -23 -56 -139 -294 -255 -524 -26 -52 -98 -187 -160 -299 -61 -112 -108
-207 -104 -211 4 -3 28 -22 53 -42 25 -20 60 -50 78 -67 18 -17 37 -31 41 -31
5 0 21 35 36 78 53 145 122 263 214 360 30 32 40 34 97 17 6 -2 14 -30 18 -62
11 -96 55 -279 101 -423 24 -74 54 -184 66 -245 19 -93 27 -114 52 -137 35
-34 51 -36 44 -5 -3 12 -14 90 -24 172 -23 192 -25 798 -4 910 16 83 37 129
54 119 7 -4 9 -4 5 1 -4 4 1 23 12 40 11 18 29 67 40 109 30 117 82 209 170
297 100 101 165 133 257 127 l66 -4 -7 315 c-4 174 -9 336 -11 361 -12 162
-15 329 -6 335 7 4 11 -9 12 -37 1 -24 3 -59 4 -78 1 -19 6 -161 10 -315 4
-154 8 -291 10 -304 2 -13 7 -87 10 -165 5 -97 11 -148 21 -164 11 -17 13 -39
8 -85 -11 -111 -11 -117 -5 -117 4 0 13 23 20 51 7 27 16 48 19 44 3 -3 9
-171 13 -373 4 -202 10 -398 13 -437 4 -38 13 -184 21 -322 15 -244 31 -386
60 -523 l14 -65 -4 65 c-15 221 -15 218 -4 170 5 -25 25 -124 44 -220 20 -96
48 -222 63 -280 l27 -105 64 -23 64 -22 -7 57 c-50 422 -70 665 -61 751 13
118 60 262 134 411 37 73 45 81 93 105 30 14 87 33 128 41 86 17 349 30 367
18 6 -4 57 -91 113 -193 56 -102 106 -189 111 -195 7 -7 8 37 4 130 -4 104 -3
134 5 115 6 -13 13 -87 17 -165 3 -90 10 -150 19 -167 13 -24 12 -27 -1 -22
-22 9 -19 -19 5 -41 10 -9 26 -15 33 -12 10 4 27 -13 50 -46 30 -44 37 -63 41
-122 4 -51 3 -64 -4 -46 -6 13 -18 35 -29 50 -10 14 -24 43 -30 63 -7 20 -25
51 -42 70 l-30 33 6 -85 c2 -47 7 -168 10 -270 11 -368 24 -723 27 -725 4 -4
193 -35 212 -35 12 0 16 10 15 43 0 43 -22 256 -39 385 -6 40 -10 96 -10 125
0 29 -7 77 -15 107 -16 60 -32 230 -39 410 -3 81 -10 131 -24 170 -53 146 -72
201 -93 270 -12 41 -24 82 -25 90 -2 8 -24 64 -49 123 -25 60 -45 116 -45 124
0 8 -9 32 -20 52 -29 53 -60 130 -60 150 0 9 14 33 30 53 28 34 75 110 113
183 33 65 85 285 107 456 19 148 16 755 -5 849 -4 18 -3 30 3 30 6 0 12 -3 14
-7 6 -14 155 -123 168 -123 7 0 53 -29 104 -64 137 -95 241 -154 361 -204 68
-28 87 -31 190 -32 110 -1 288 29 311 53 4 4 21 7 38 7 25 0 271 79 401 128
17 7 90 33 163 59 86 31 138 55 144 67 8 14 7 17 -4 10 -7 -5 -15 -9 -18 -9
-6 -1 -68 -19 -132 -37 -24 -7 -49 -12 -57 -11 -8 1 -95 -29 -195 -67 -100
-37 -199 -73 -221 -80 -51 -15 -156 -42 -175 -45 -8 -1 -23 -6 -32 -10 -10 -4
-24 -5 -32 -2 -8 3 -17 3 -20 0 -3 -3 -40 -7 -84 -9 -67 -3 -97 1 -215 35 -87
25 -160 53 -203 77 -36 22 -75 44 -85 50 -10 6 -27 18 -37 27 -10 10 -26 17
-35 17 -10 0 -57 28 -105 63 -88 63 -261 179 -408 272 -217 138 -249 159 -273
182 -14 13 -132 101 -261 195 -230 168 -298 223 -469 377 -130 118 -174 166
-258 289 -20 29 -73 168 -73 192 0 6 24 10 54 10 63 0 110 15 100 31 -4 8 -30
9 -83 4 -181 -18 -377 -3 -484 36 -89 33 -108 22 -62 -33 14 -16 25 -40 25
-54 0 -22 -4 -24 -52 -24 -52 0 -131 22 -155 42 -25 20 -13 101 13 91 18 -7
18 14 0 24 -8 4 -42 34 -77 65 -35 31 -109 93 -164 136 -187 149 -330 305
-487 532 -115 166 -310 555 -345 685 -2 11 -18 61 -33 110 -16 50 -32 106 -35
125 -4 19 -13 53 -20 75 -17 53 -24 98 -35 230 -15 175 -26 153 103 217 137
70 285 134 329 143 49 11 163 50 248 85 136 56 265 107 290 115 l25 7 -21 -23
c-23 -26 -22 -51 2 -42 10 4 14 -3 14 -23 0 -21 -10 -37 -35 -57 -40 -32 -38
-47 7 -47 34 0 32 16 11 -145 -5 -33 -17 -73 -28 -89 l-19 -29 36 7 c43 8 44
5 53 -95 8 -85 27 -211 55 -352 11 -54 25 -128 30 -165 37 -230 170 -652 268
-847 123 -247 300 -449 447 -511 55 -23 54 -9 -1 25 -116 71 -140 98 -158 172
-5 25 -3 27 39 33 25 4 49 5 54 1 6 -3 52 0 103 7 l93 12 -55 7 c-30 4 -75 9
-100 12 -57 7 -70 11 -159 55 -66 32 -163 106 -185 141 -4 7 -16 21 -26 31
-41 41 -183 376 -152 356 5 -3 22 -24 38 -48 46 -69 94 -132 94 -123 0 4 -29
48 -64 99 -73 105 -98 151 -125 232 -46 138 -97 363 -104 464 l-5 65 24 -45
c30 -55 20 -13 -11 51 -14 26 -26 74 -30 115 -4 38 -8 83 -10 99 -2 17 -7 81
-11 144 -6 104 -5 116 11 128 16 11 17 16 5 38 -7 13 -16 23 -19 20 -4 -2 -7
5 -7 16 0 35 23 20 41 -28 20 -52 34 -43 16 9 -7 18 -8 35 -3 40 6 6 12 -5 16
-24 8 -39 126 -283 156 -321 12 -15 25 -25 30 -22 5 3 12 -4 15 -16 7 -22 104
-179 111 -179 2 0 1 8 -2 18 -4 9 4 2 15 -17 12 -18 24 -31 26 -29 3 2 -8 38
-24 79 -27 69 -53 172 -66 263 -4 21 -9 35 -12 32 -3 -3 -12 -1 -20 5 -17 15
-17 60 2 95 8 16 15 38 15 49 0 47 56 91 216 171 146 73 190 108 88 69 -25 -9
-48 -14 -51 -11 -3 3 0 7 8 10 8 2 41 14 75 25 66 24 167 32 184 15 15 -15 4
-37 -29 -57 -23 -14 -29 -25 -34 -69 -15 -119 1 -296 29 -329 8 -8 14 -24 14
-35 1 -31 24 -110 38 -126 6 -8 30 -53 52 -99 54 -116 107 -206 147 -256 54
-65 174 -153 219 -160 37 -5 38 -5 19 10 -11 9 -24 17 -28 17 -17 0 -148 94
-158 112 -7 13 -7 23 0 32 18 22 2 48 -25 42 -27 -7 -41 9 -24 29 16 19 2 38
-24 31 -31 -8 -51 7 -31 24 13 11 13 16 -5 44 -23 39 -50 137 -50 186 0 19 11
58 24 87 26 54 54 76 116 88 l35 6 2 -41 c2 -63 13 -68 86 -42 34 12 65 22 70
22 4 0 7 -13 7 -29 0 -23 -7 -32 -30 -42 -36 -17 -61 -66 -39 -80 8 -6 33 -8
56 -6 l41 4 22 -88 c12 -49 28 -93 36 -100 8 -6 14 -15 14 -20 0 -4 5 -20 10
-34 l10 -27 41 42 c52 53 199 287 199 315 0 12 -9 49 -21 84 -12 34 -19 64
-17 67 12 11 113 -21 156 -49 35 -24 55 -48 80 -97 31 -61 33 -70 28 -140 -9
-134 -61 -235 -151 -295 -30 -19 -57 -40 -60 -45 -3 -5 1 -23 10 -39 14 -28
14 -31 -3 -40 -16 -10 -15 -10 3 -11 26 0 58 21 123 84 61 58 96 106 141 191
67 124 92 234 94 403 2 113 4 131 17 126 8 -3 20 -7 25 -8 6 -1 15 -5 22 -9 6
-4 15 -2 19 4 4 7 -13 28 -40 51 -26 22 -45 42 -43 45 3 2 22 -3 42 -11 73
-31 76 -12 5 35 -63 43 -65 59 -3 20 52 -33 70 -33 32 -2 -34 28 -16 26 37 -5
25 -15 48 -24 51 -20 13 13 -18 56 -71 97 -57 46 -85 82 -41 53 21 -14 25 -14
25 -2 0 8 -28 38 -62 66 -86 70 -181 162 -174 169 3 3 26 -4 51 -16 53 -25 62
-26 45 -6 -7 8 -9 15 -5 15 4 0 2 7 -5 15 -18 22 -3 18 47 -11 25 -14 47 -24
49 -21 6 5 -161 119 -191 131 -14 5 -16 9 -7 15 15 9 -63 46 -203 95 -88 32
-122 40 -185 45 -8 1 -22 6 -30 11 -13 9 -13 11 0 20 8 5 25 10 37 10 13 0 46
11 75 24 29 14 66 28 82 31 52 11 18 18 -81 15 -174 -4 -284 -16 -392 -45
l-52 -13 5 106 c2 59 5 128 5 153 l1 45 93 14 c50 7 106 15 122 16 48 4 288
55 307 65 9 5 30 10 45 10 37 2 93 21 93 32 0 4 5 5 10 2 12 -7 62 21 135 76
29 21 66 39 87 42 35 4 37 3 53 -37 39 -97 133 -272 169 -312 25 -30 45 -67
58 -110 11 -36 22 -63 25 -60 6 5 -14 91 -26 111 -3 6 -6 12 -6 15 -4 35 -18
80 -25 85 -5 3 -5 -7 0 -25 5 -16 5 -30 0 -30 -10 0 -20 25 -20 49 0 9 -8 26
-18 37 -35 38 -62 92 -77 155 l-15 64 27 23 c24 22 27 22 36 7 5 -9 15 -52 23
-95 16 -94 35 -172 40 -167 5 4 2 24 -46 322 -44 275 -58 377 -80 595 -28 271
-46 353 -64 293 -23 -80 -38 -464 -21 -562 8 -50 10 -64 24 -171 5 -47 13
-107 17 -135 14 -105 -31 6 -77 190 -29 119 -49 179 -55 172 -2 -1 3 -24 11
-50 8 -26 14 -50 14 -52 -1 -12 24 -124 38 -174 9 -31 11 -56 6 -60 -5 -3 -43
-31 -84 -62 -41 -30 -103 -67 -139 -81 -69 -27 -252 -79 -360 -102 -36 -7 -83
-18 -105 -24 -55 -14 -205 -36 -210 -30 -3 2 7 87 21 189 13 101 27 204 31
229 3 24 11 60 18 80 l12 34 144 32 c210 47 507 106 559 111 25 3 46 6 47 7 4
3 -25 108 -31 113 -3 3 -3 -18 1 -47 4 -33 3 -51 -3 -47 -13 8 -17 86 -6 100
6 7 4 53 -4 117 -8 58 -14 173 -15 255 -1 109 -4 143 -11 125 -12 -31 -4 -286
13 -394 14 -94 13 -96 -81 -96 -36 0 -92 -5 -125 -10 -33 -6 -76 -12 -95 -14
-83 -8 -141 -19 -146 -27 -3 -5 -11 -9 -17 -9 -7 0 -6 4 3 10 23 15 -1 13 -97
-7 -45 -9 -85 -15 -88 -12 -12 13 57 240 161 526 17 45 13 44 127 58 71 9 56
25 -18 18 -36 -3 -65 -3 -65 1 0 11 81 169 102 198 11 16 18 40 16 54 -3 22
-11 12 -55 -63z m571 -590 c4 -43 8 -82 9 -88 1 -5 -9 -12 -22 -13 -23 -4 -24
-2 -17 44 3 26 6 69 6 96 0 75 17 48 24 -39z m-451 -195 c4 -20 3 -61 -2 -91
0 -5 -5 -5 -11 -2 -12 8 -13 115 -1 115 5 0 11 -10 14 -22z m-234 -95 c1 -24
-3 -43 -8 -43 -15 0 -24 58 -15 98 7 35 7 36 14 12 5 -14 8 -44 9 -67z m378
41 c-3 -3 -12 -4 -19 -1 -8 3 -5 6 6 6 11 1 17 -2 13 -5z m323 -24 c15 0 19
-12 25 -72 4 -40 11 -93 16 -117 9 -42 8 -46 -23 -78 -44 -45 -43 -48 -64 211
-5 61 -4 68 11 62 9 -3 25 -6 35 -6z m-1586 -249 c4 -5 -18 -17 -46 -27 -29
-9 -59 -19 -65 -22 -7 -2 -13 0 -13 6 0 5 18 12 40 16 23 3 43 13 46 21 7 17
30 20 38 6z m-209 -52 c8 -24 11 -22 -45 -41 -89 -32 -106 -29 -40 5 36 18 64
39 63 45 -5 21 15 13 22 -9z m1831 -25 c-10 -9 -16 -33 -16 -60 0 -52 -15 -51
-24 1 -6 30 -3 41 21 68 17 20 29 28 31 20 2 -7 -4 -20 -12 -29z m-2076 -23
c0 -5 -7 -11 -14 -14 -10 -4 -13 -1 -9 9 6 15 23 19 23 5z m-32 -56 c-2 -1
-18 -5 -37 -9 -27 -5 -31 -4 -22 8 6 7 22 11 36 8 14 -2 25 -6 23 -7z m820
-470 c0 -5 -6 4 -13 20 -8 17 -14 37 -14 45 0 8 7 -1 14 -20 7 -19 13 -39 13
-45z m-48 61 c0 -2 -8 -10 -17 -17 -16 -13 -17 -12 -4 4 13 16 21 21 21 13z
m690 -175 c-24 -19 -40 -19 -40 -1 0 5 12 11 28 13 15 2 29 5 32 5 3 1 -6 -7
-20 -17z m-610 -31 c0 -5 -4 -10 -10 -10 -5 0 -10 5 -10 10 0 6 5 10 10 10 6
0 10 -4 10 -10z m-30 -24 c0 -2 -7 -7 -16 -10 -8 -3 -12 -2 -9 4 6 10 25 14
25 6z m-65 -24 c-33 -20 -65 -34 -65 -28 0 8 66 46 80 46 8 0 2 -8 -15 -18z
m-251 -46 c-3 -8 2 -16 13 -19 10 -3 -9 -5 -42 -5 l-60 -1 35 19 c42 23 61 25
54 6z m113 -12 c-3 -3 -12 -4 -19 -1 -8 3 -5 6 6 6 11 1 17 -2 13 -5z m1008
-34 c13 -6 15 -9 5 -9 -8 0 -22 4 -30 9 -18 12 -2 12 25 0z m-1263 -39 c10 0
22 -10 28 -20 9 -17 3 -23 -48 -47 -31 -14 -103 -53 -159 -85 -57 -33 -109
-60 -115 -61 -7 -2 -17 -8 -23 -14 -5 -7 -22 -19 -37 -29 l-27 -17 5 28 c6 34
14 45 14 20 0 -16 1 -16 16 -2 15 15 29 20 48 17 5 -1 6 4 3 12 -3 7 4 19 15
26 11 7 17 15 14 18 -3 3 -11 1 -18 -4 -15 -11 -48 -24 -48 -19 0 2 29 19 64
36 35 18 97 58 137 90 43 33 82 56 94 55 11 -1 28 -3 37 -4z m-268 -353 c-10
-13 -28 -32 -40 -43 -11 -11 -30 -34 -42 -51 -11 -17 -28 -31 -36 -31 -20 0
-20 2 0 32 15 23 120 115 132 115 3 0 -3 -10 -14 -22z m1247 -44 c11 -13 10
-21 -5 -48 -10 -18 -16 -46 -14 -61 3 -25 10 -31 61 -48 66 -22 81 -42 49 -67
-32 -26 -221 -107 -269 -115 l-43 -7 0 47 c0 75 -18 130 -51 154 -16 12 -29
28 -29 36 0 15 127 85 155 85 8 0 29 9 47 20 40 24 81 26 99 4z m699 -211 c0
-7 -39 17 -46 28 -3 6 5 3 20 -6 14 -10 26 -19 26 -22z m-3304 -298 c1 -124 6
-210 12 -218 11 -12 16 -46 27 -157 9 -90 21 -165 51 -305 59 -278 100 -408
181 -569 21 -40 21 -46 6 -35 -52 39 -187 200 -250 299 -49 76 -153 289 -183
375 -42 121 -89 271 -95 308 -7 36 -7 37 24 37 21 0 31 5 31 15 0 8 -9 15 -20
15 -24 0 -35 21 -45 80 -4 25 -13 54 -19 65 -7 11 -16 44 -20 73 -4 29 -9 58
-12 65 -3 8 38 34 117 72 111 54 175 83 189 84 3 1 6 -91 6 -204z m1444 131
c-1 -6 -7 4 -15 23 -8 18 -15 38 -15 45 1 6 7 -4 15 -23 8 -18 15 -38 15 -45z
m1330 -29 c0 -16 -9 -28 -25 -35 -14 -6 -25 -15 -25 -19 0 -5 -17 -9 -38 -11
-20 -1 -65 -11 -99 -23 -34 -11 -76 -19 -94 -17 l-31 3 18 23 c11 13 35 27 54
32 19 5 78 22 130 39 116 36 110 36 110 8z m-1310 -8 c0 -6 -4 -7 -10 -4 -5 3
-10 11 -10 16 0 6 5 7 10 4 6 -3 10 -11 10 -16z m-1286 -363 c20 -66 20 -82 1
-38 -8 17 -19 32 -25 32 -5 0 -10 5 -10 11 0 5 5 7 11 3 9 -5 10 1 5 20 -12
49 2 26 18 -28z m-104 -23 c-4 -42 -5 -44 -8 -15 -3 30 2 62 10 62 2 0 1 -21
-2 -47z m139 -98 c0 -5 -4 -3 -9 5 -5 8 -9 22 -9 30 0 16 17 -16 18 -35z m37
-123 c-5 -5 -26 59 -25 77 0 9 7 -4 14 -29 8 -24 13 -46 11 -48z m-299 -454
c-3 -7 -5 -2 -5 12 0 14 2 19 5 13 2 -7 2 -19 0 -25z m10 -65 c-3 -10 -5 -2
-5 17 0 19 2 27 5 18 2 -10 2 -26 0 -35z m1711 -950 c18 -3 37 -14 43 -25 13
-25 4 -35 -16 -18 -19 16 -19 6 1 -24 20 -32 1 -45 -28 -19 l-21 18 17 -33
c10 -20 29 -38 47 -44 34 -12 35 -13 10 -45 -20 -24 -20 -24 -32 -5 -14 23
-38 18 -40 -7 -1 -9 -9 27 -18 79 -10 52 -21 106 -25 119 -7 21 -6 23 10 17
11 -4 34 -10 52 -13z m139 -19 c-3 -3 -12 -4 -19 -1 -8 3 -5 6 6 6 11 1 17 -2
13 -5z m151 -86 c10 -40 17 -153 27 -473 2 -71 7 -173 10 -225 4 -52 8 -133
10 -180 2 -47 6 -155 10 -241 5 -112 4 -158 -4 -163 -6 -4 -11 0 -12 11 0 10
-2 25 -4 33 -1 8 -5 114 -9 235 -4 121 -8 234 -11 250 -2 17 -7 89 -10 160 -3
72 -10 195 -15 275 -5 80 -12 196 -16 259 -7 119 3 143 24 59z m-301 -200 c-2
-18 -4 -6 -4 27 0 33 2 48 4 33 2 -15 2 -42 0 -60z m577 -203 c3 -27 8 -104
11 -170 4 -66 8 -151 10 -190 11 -194 14 -448 6 -430 -8 19 -15 110 -26 335
-3 58 -7 137 -10 175 -12 188 -15 359 -7 345 6 -8 12 -37 16 -65z m-607 -122
c-3 -10 -5 -2 -5 17 0 19 2 27 5 18 2 -10 2 -26 0 -35z m0 -55 c-3 -8 -6 -5
-6 6 -1 11 2 17 5 13 3 -3 4 -12 1 -19z m988 -98 c3 -5 1 -10 -4 -10 -6 0 -11
5 -11 10 0 6 2 10 4 10 3 0 8 -4 11 -10z m152 -53 c24 -17 41 -32 39 -35 -6
-5 -92 54 -102 70 -9 14 5 6 63 -35z m-2730 -489 c-3 -7 -5 -2 -5 12 0 14 2
19 5 13 2 -7 2 -19 0 -25z m0 -60 c-3 -7 -5 -2 -5 12 0 14 2 19 5 13 2 -7 2
-19 0 -25z m3416 -638 c-1 -135 -8 -281 -14 -325 -10 -72 -93 -344 -132 -435
-9 -20 -28 -50 -45 -69 l-29 -33 -21 53 c-11 30 -30 81 -42 114 -11 33 -46
129 -76 213 -41 114 -55 167 -55 210 -2 142 53 275 135 329 60 39 92 70 83 79
-3 4 -19 -1 -34 -11 -15 -10 -39 -25 -53 -34 -57 -35 12 28 81 74 38 25 69 50
69 54 0 9 94 30 120 27 13 -1 15 -35 13 -246z m-313 155 c-13 -14 -26 -22 -29
-19 -3 3 5 14 18 25 33 27 39 24 11 -6z m-149 -375 c-14 -97 -8 -230 14 -315
7 -27 28 -90 47 -140 54 -138 52 -133 24 -100 -61 71 -116 261 -116 402 0 77
27 259 38 249 3 -3 -1 -46 -7 -96z m-1687 -127 c-4 -16 -15 -44 -26 -63 -19
-35 -18 -31 9 48 17 47 27 56 17 15z m1025 -220 c1 -28 -3 -55 -9 -58 -6 -4
-10 29 -9 92 1 79 3 90 10 58 4 -22 8 -63 8 -92z m18 -408 c1 -216 -8 -179
-23 100 -8 155 -8 181 3 198 12 19 19 -82 20 -298z m456 -20 c-3 -17 -29 -29
-48 -21 -14 5 -15 9 -5 22 14 16 56 16 53 -1z m-1871 -187 c-7 -7 -12 -8 -12
-2 0 6 3 14 7 17 3 4 9 5 12 2 2 -3 -1 -11 -7 -17z m1502 -294 c12 -5 13 -10
4 -30 -13 -27 -19 -29 -36 -12 -7 7 -8 17 -1 30 11 20 11 20 33 12z m-67 -91
c-3 -10 -5 -2 -5 17 0 19 2 27 5 18 2 -10 2 -26 0 -35z"/>
<path d="M2658 10073 c6 -2 18 -2 25 0 6 3 1 5 -13 5 -14 0 -19 -2 -12 -5z"/>
<path d="M2608 10063 c6 -2 18 -2 25 0 6 3 1 5 -13 5 -14 0 -19 -2 -12 -5z"/>
<path d="M2515 10050 c-14 -7 -8 -8 20 -3 22 3 42 7 44 9 9 8 -45 2 -64 -6z"/>
<path d="M2318 10013 c6 -2 18 -2 25 0 6 3 1 5 -13 5 -14 0 -19 -2 -12 -5z"/>
<path d="M2263 10003 c9 -2 23 -2 30 0 6 3 -1 5 -18 5 -16 0 -22 -2 -12 -5z"/>
<path d="M3097 9830 c-23 -57 -37 -109 -35 -126 3 -28 4 -27 26 21 36 77 54
140 50 172 -2 25 -9 14 -41 -67z"/>
<path d="M4131 9841 c-19 -3 -36 -11 -38 -17 -4 -12 59 -4 122 15 29 9 29 9
-10 9 -22 0 -55 -3 -74 -7z"/>
<path d="M5172 9810 c-6 -25 -20 -83 -31 -130 -10 -47 -24 -108 -31 -136 -8
-38 -18 -54 -36 -62 -13 -7 -24 -15 -24 -20 0 -16 13 -21 30 -12 14 8 16 5 13
-18 -7 -53 15 13 27 80 6 35 25 118 42 185 16 68 28 131 26 140 -2 10 -9 -2
-16 -27z"/>
<path d="M5255 9748 c-14 -64 -26 -262 -30 -513 -6 -298 -10 -350 -55 -625
-16 -96 -31 -197 -35 -225 -31 -255 -35 -322 -36 -540 0 -234 7 -371 20 -379
3 -2 6 145 7 327 1 330 10 482 39 607 8 36 24 130 36 210 12 80 25 149 29 153
4 5 10 -25 14 -65 10 -107 44 -317 57 -358 17 -51 63 -140 72 -140 5 0 5 6 0
13 -4 6 -8 30 -9 52 -1 22 -8 111 -15 198 -10 122 -10 163 -1 178 7 10 12 58
13 106 1 98 9 138 27 138 7 0 16 6 21 13 5 9 18 -16 37 -70 28 -79 29 -91 28
-243 -1 -146 -18 -421 -30 -470 -4 -16 -3 -17 5 -4 5 8 13 38 16 65 3 27 8 63
10 79 2 17 7 71 11 120 3 50 8 93 10 97 8 13 2 442 -6 498 -7 43 -8 26 -6 -72
1 -71 -2 -128 -6 -128 -4 0 -8 3 -8 8 0 11 -20 131 -44 274 -21 119 -29 283
-18 341 5 26 6 47 1 47 -5 0 -9 -6 -10 -12 0 -7 -4 -35 -9 -63 -47 -256 -69
-509 -67 -768 1 -119 -1 -217 -4 -217 -15 0 -55 272 -64 440 -16 300 -12 735
10 898 6 52 0 72 -10 30z m152 -820 c-3 -7 -5 -2 -5 12 0 14 2 19 5 13 2 -7 2
-19 0 -25z m-20 -15 c-3 -10 -5 -4 -5 12 0 17 2 24 5 18 2 -7 2 -21 0 -30z"/>
<path d="M3035 9639 c-4 -6 -5 -12 -2 -15 7 -7 37 7 37 17 0 13 -27 11 -35 -2z"/>
<path d="M2993 9533 c-46 -110 -113 -376 -99 -391 3 -3 6 1 6 10 0 8 9 44 20
79 11 35 25 80 30 99 5 19 23 82 40 139 34 111 35 141 3 64z"/>
<path d="M8817 9528 c8 -59 13 -61 13 -5 0 26 -4 47 -9 47 -5 0 -7 -19 -4 -42z"/>
<path d="M3183 9455 c0 -44 2 -61 4 -37 2 23 2 59 0 80 -2 20 -4 1 -4 -43z"/>
<path d="M2250 9490 c-35 -7 -35 -7 10 -8 25 0 54 3 65 8 17 7 15 8 -10 8 -16
0 -46 -4 -65 -8z"/>
<path d="M1535 9450 c-11 -5 -38 -16 -59 -25 -22 -8 -36 -18 -33 -21 3 -3 32
4 64 16 32 12 90 25 128 30 l70 7 -75 1 c-41 0 -84 -3 -95 -8z"/>
<path d="M5081 9374 c0 -11 3 -14 6 -6 3 7 2 16 -1 19 -3 4 -6 -2 -5 -13z"/>
<path d="M8830 9346 c0 -2 7 -9 15 -16 9 -7 15 -8 15 -2 0 5 -7 12 -15 16 -8
3 -15 4 -15 2z"/>
<path d="M5071 9324 c0 -11 3 -14 6 -6 3 7 2 16 -1 19 -3 4 -6 -2 -5 -13z"/>
<path d="M8848 9295 c-11 -56 76 -511 163 -848 11 -42 17 -82 13 -89 -5 -7 -3
-8 6 -3 10 6 12 3 8 -13 -4 -12 -3 -20 2 -17 4 2 17 -25 29 -60 31 -97 106
-251 135 -280 85 -85 87 59 2 319 -24 76 -42 144 -40 150 4 11 -27 87 -166
406 -71 162 -99 241 -115 324 -9 48 -20 98 -24 110 -8 20 -9 20 -13 1z m156
-495 c28 -73 68 -178 119 -310 33 -84 103 -357 111 -435 6 -56 6 -59 -9 -40
-40 49 -113 237 -175 450 -17 61 -40 139 -50 175 -24 82 -70 287 -69 309 0 20
36 -52 73 -149z"/>
<path d="M6315 9255 c-16 -8 -23 -14 -14 -15 8 0 24 7 35 15 23 18 18 18 -21
0z"/>
<path d="M5051 9204 c0 -11 3 -14 6 -6 3 7 2 16 -1 19 -3 4 -6 -2 -5 -13z"/>
<path d="M5039 9152 c-3 -20 -2 -29 4 -23 5 5 7 19 5 32 -3 20 -5 19 -9 -9z"/>
<path d="M2881 9114 c0 -11 3 -14 6 -6 3 7 2 16 -1 19 -3 4 -6 -2 -5 -13z"/>
<path d="M5866 8891 c-3 -23 -4 -46 -1 -52 4 -5 2 -9 -3 -9 -6 0 -12 -17 -15
-37 -5 -42 -10 -58 -22 -87 -5 -10 -9 -28 -10 -40 0 -12 -7 -31 -14 -44 -6
-12 -9 -32 -5 -44 4 -13 2 -18 -5 -14 -7 5 -9 -2 -5 -22 5 -22 0 -35 -20 -57
-26 -28 -28 -33 -30 -87 0 -15 -5 -27 -10 -27 -15 1 -25 -25 -19 -50 5 -20 3
-23 -11 -18 -13 5 -15 2 -11 -16 4 -12 -1 -36 -9 -52 -9 -17 -16 -33 -16 -37
0 -13 -33 -47 -40 -43 -4 3 -16 -15 -26 -38 -34 -75 -168 -301 -194 -327 -26
-26 -140 -159 -140 -164 0 -27 108 76 182 174 52 68 165 260 209 354 21 46 45
88 53 95 46 39 198 606 177 664 -6 17 -9 13 -15 -22z m-106 -456 c-6 -15 -13
-26 -16 -23 -2 3 0 18 6 33 6 15 13 26 16 23 2 -3 0 -18 -6 -33z"/>
<path d="M2803 8480 c0 -41 2 -58 4 -37 2 20 2 54 0 75 -2 20 -4 3 -4 -38z"/>
<path d="M4010 8502 c-52 -13 -99 -28 -105 -33 -13 -13 12 -28 50 -30 27 -1
27 -2 -10 -10 -22 -5 -60 -12 -85 -14 -128 -14 -95 -23 90 -24 107 0 216 -3
241 -7 35 -4 51 -2 65 10 11 9 50 37 88 63 89 61 96 79 31 70 -26 -4 -90 -7
-141 -7 l-94 0 0 -55 c0 -30 -4 -55 -10 -55 -5 0 -10 19 -11 43 -1 75 -1 75
-109 49z"/>
<path d="M2060 8409 c-77 -69 -222 -183 -280 -218 -65 -41 -205 -111 -220
-111 -5 0 -10 -4 -10 -8 0 -29 168 40 267 111 25 17 64 45 87 60 23 16 60 48
84 70 43 41 127 137 120 137 -1 0 -23 -19 -48 -41z"/>
<path d="M3818 8442 c-16 -2 -28 -7 -28 -12 0 -8 58 -3 68 5 8 7 -15 10 -40 7z"/>
<path d="M9041 8294 c0 -11 3 -14 6 -6 3 7 2 16 -1 19 -3 4 -6 -2 -5 -13z"/>
<path d="M4568 8210 c61 -51 102 -69 66 -28 -21 23 -103 78 -117 78 -5 0 18
-22 51 -50z"/>
<path d="M3910 8240 c-9 -6 -10 -10 -3 -10 6 0 15 5 18 10 8 12 4 12 -15 0z"/>
<path d="M3840 8215 l-25 -15 30 6 c33 7 58 24 35 24 -8 -1 -26 -7 -40 -15z"/>
<path d="M7358 8223 c34 -2 88 -2 120 0 31 2 3 3 -63 3 -66 0 -92 -1 -57 -3z"/>
<path d="M4801 8114 c-1 -14 44 -208 69 -299 34 -125 108 -322 110 -292 0 4
-27 89 -59 190 -33 100 -73 234 -90 297 -16 63 -30 110 -30 104z"/>
<path d="M6958 8085 c-74 -43 -105 -65 -92 -65 6 0 36 16 68 35 32 19 62 35
66 35 4 0 10 7 14 15 3 8 4 15 3 14 -1 0 -28 -16 -59 -34z"/>
<path d="M10581 8005 c-1 -11 4 -49 9 -85 5 -36 12 -97 14 -136 5 -62 19 -124
29 -124 1 0 4 11 5 26 1 17 -2 23 -11 18 -9 -5 -9 -4 1 7 17 19 15 79 -8 187
-20 95 -39 147 -39 107z"/>
<path d="M10630 7625 c0 -8 4 -15 10 -15 5 0 7 7 4 15 -4 8 -8 15 -10 15 -2 0
-4 -7 -4 -15z"/>
<path d="M5000 7456 c0 -21 49 -176 66 -206 7 -14 22 -45 33 -70 83 -186 222
-336 343 -371 39 -11 116 23 129 57 30 80 -2 156 -106 254 -32 30 -74 70 -93
87 -67 65 -25 12 66 -81 97 -99 122 -141 122 -202 0 -43 -33 -94 -62 -94 -11
0 -48 10 -81 23 -76 28 -158 101 -191 170 -32 66 -61 109 -68 101 -3 -3 -9 -1
-13 5 -3 6 -1 11 4 11 6 0 -4 28 -23 63 -64 118 -75 142 -97 205 -22 62 -29
74 -29 48z m175 -356 c3 -5 1 -10 -4 -10 -6 0 -11 5 -11 10 0 6 2 10 4 10 3 0
8 -4 11 -10z"/>
<path d="M2791 7264 c0 -11 3 -14 6 -6 3 7 2 16 -1 19 -3 4 -6 -2 -5 -13z"/>
<path d="M5405 7009 c-4 -6 -17 -14 -29 -19 -20 -8 -20 -8 -2 -16 22 -9 50 6
54 30 4 18 -13 22 -23 5z"/>
<path d="M8876 6842 c-11 -17 -45 -112 -41 -112 7 0 36 60 46 92 7 27 5 36 -5
20z"/>
<path d="M2585 6735 c4 -11 10 -28 12 -37 3 -10 9 -18 14 -18 5 0 2 15 -7 33
-19 38 -30 50 -19 22z"/>
<path d="M10740 6583 c-20 -82 -65 -218 -71 -221 -4 -2 -4 -12 -1 -24 3 -13 1
-19 -5 -15 -7 5 -9 0 -6 -12 3 -10 -3 -32 -11 -47 -16 -27 -16 -27 -10 -4 4
14 9 32 12 40 3 8 3 13 0 10 -3 -3 -25 -52 -48 -110 -23 -58 -53 -129 -67
-159 -25 -53 -26 -57 -27 -307 0 -140 1 -254 5 -254 3 0 22 16 43 35 45 41 52
44 31 12 -8 -13 -12 -26 -9 -30 4 -3 -10 -35 -30 -71 -36 -64 -52 -124 -22
-81 14 21 92 173 119 235 17 39 56 183 87 330 26 119 42 320 38 470 l-3 115
-14 -77 c-8 -43 -18 -73 -22 -66 -5 8 -8 7 -12 -3 -2 -8 -2 -5 0 6 2 11 7 37
10 58 3 20 10 37 14 37 5 0 9 22 9 49 0 28 5 53 10 56 6 3 10 13 10 21 0 8 -5
12 -10 9 -7 -4 -9 2 -4 19 3 14 4 26 1 26 -2 0 -10 -21 -17 -47z m-33 -615
c-3 -7 -5 -2 -5 12 0 14 2 19 5 13 2 -7 2 -19 0 -25z"/>
<path d="M10462 6520 c0 -19 2 -27 5 -17 2 9 2 25 0 35 -3 9 -5 1 -5 -18z"/>
<path d="M1525 6431 c-3 -5 -1 -12 5 -16 5 -3 10 1 10 9 0 18 -6 21 -15 7z"/>
<path d="M7479 6288 c20 -5 37 -6 43 0 5 5 -9 9 -34 9 l-43 1 34 -10z"/>
<path d="M11221 6248 c-8 -15 -17 -25 -21 -23 -4 2 -17 -22 -30 -53 -12 -31
-29 -68 -37 -81 -8 -13 -36 -64 -63 -115 -92 -176 -151 -264 -276 -408 -94
-109 -204 -217 -261 -257 -34 -23 -47 -58 -18 -47 14 5 14 4 0 -16 -16 -23
-20 -58 -7 -58 4 0 20 26 35 58 21 43 54 82 125 148 110 102 253 278 337 412
31 50 59 92 62 92 10 0 -5 -400 -21 -565 -8 -88 -20 -225 -26 -305 -5 -80 -12
-163 -15 -185 -3 -22 -10 -80 -16 -130 -5 -49 -14 -117 -19 -150 -9 -59 -13
-90 -45 -365 -14 -114 -41 -315 -50 -370 -2 -8 -6 -44 -10 -80 -4 -36 -9 -76
-10 -90 -2 -14 -6 -54 -10 -90 -4 -36 -9 -69 -12 -75 -4 -7 -3 -7 4 0 17 16
53 123 53 156 0 18 4 28 10 24 16 -10 31 43 35 125 15 261 29 449 41 545 22
181 63 589 89 895 2 25 6 158 10 295 9 417 6 398 78 512 85 134 89 144 85 189
l-3 39 -14 -27z"/>
<path d="M3895 6230 c-18 -7 -19 -8 -2 -15 9 -4 29 -4 45 0 25 7 25 8 7 15
-25 10 -25 10 -50 0z"/>
<path d="M2796 6147 c3 -10 9 -15 12 -12 3 3 0 11 -7 18 -10 9 -11 8 -5 -6z"/>
<path d="M9127 5992 c-42 -89 -42 -92 -23 -92 15 0 71 140 64 160 -2 6 -20
-24 -41 -68z"/>
<path d="M8310 6022 c0 -25 15 -28 36 -8 18 18 19 32 1 17 -10 -8 -17 -7 -25
1 -9 9 -12 7 -12 -10z"/>
<path d="M7430 5960 c0 -13 28 -25 38 -16 3 4 0 11 -8 16 -20 13 -30 12 -30 0z"/>
<path d="M2869 5932 c6 -11 27 -32 48 -47 l38 -29 -40 46 c-41 48 -63 62 -46
30z"/>
<path d="M10417 5811 c-51 -102 -64 -158 -27 -111 16 20 19 21 13 5 -6 -18 -5
-19 13 -5 10 8 7 1 -8 -15 -25 -29 -26 -36 -30 -158 -2 -80 1 -127 7 -127 6 1
28 13 50 28 l40 28 -2 223 c-1 123 -3 224 -5 226 -2 1 -25 -41 -51 -94z"/>
<path d="M10201 5803 c-28 -37 -51 -76 -51 -87 1 -19 3 -18 25 9 25 30 90 145
82 145 -2 0 -27 -30 -56 -67z"/>
<path d="M8990 5708 c-75 -150 -114 -207 -200 -294 -101 -102 -175 -157 -290
-216 -134 -67 -268 -108 -362 -108 -29 0 -60 -5 -68 -10 -10 -7 27 -10 115
-10 145 0 311 31 397 73 56 28 55 26 -41 -86 -70 -82 -164 -166 -324 -290 -65
-50 -245 -143 -297 -154 -124 -24 107 -32 254 -8 49 8 92 13 94 10 2 -2 -1
-10 -7 -17 -7 -7 -22 -27 -34 -43 -59 -80 -337 -318 -452 -385 -22 -13 -53
-36 -70 -51 -35 -32 -170 -115 -300 -184 -49 -27 -101 -56 -115 -65 -29 -20
-85 -51 -235 -132 -120 -65 -139 -78 -112 -78 38 0 -6 -93 -63 -135 -63 -46
-117 -24 -104 42 6 33 -13 57 -35 43 -19 -11 -27 -106 -11 -125 15 -18 44 -20
34 -2 -6 10 -4 10 7 0 20 -19 80 -16 115 6 53 32 86 85 88 137 l1 47 75 27
c91 34 257 103 300 125 18 9 34 15 36 12 2 -2 -3 -28 -10 -58 -24 -89 -35
-237 -42 -554 -4 -200 -10 -306 -18 -315 -6 -8 -31 -32 -56 -54 -25 -21 -103
-95 -174 -165 -71 -69 -125 -119 -121 -111 4 8 -26 -19 -66 -60 -179 -185
-453 -473 -529 -555 -46 -49 -123 -130 -170 -180 -225 -235 -305 -340 -347
-455 -17 -46 -20 -83 -22 -220 -2 -231 -15 -399 -46 -620 -3 -19 -9 -71 -15
-115 -5 -44 -14 -105 -20 -135 -5 -30 -9 -93 -8 -139 l1 -84 171 6 c184 7 359
25 581 57 203 31 184 24 175 67 -31 140 -45 590 -25 788 15 154 17 164 50 325
32 158 49 216 138 490 41 127 125 325 133 317 3 -3 -7 -33 -21 -68 -39 -94
-57 -145 -47 -134 5 6 30 64 57 130 26 66 67 158 91 205 23 47 61 126 84 175
107 231 309 607 399 745 29 46 38 61 98 163 6 11 16 23 22 27 6 3 13 16 16 28
2 12 17 41 33 64 16 24 43 68 60 98 16 30 55 96 86 145 30 50 69 113 86 140
17 28 48 77 69 110 22 33 77 121 122 195 97 157 236 366 289 430 20 25 46 61
58 81 12 19 29 43 39 52 18 16 212 71 221 63 2 -3 -9 -24 -26 -48 -60 -88
-114 -183 -344 -608 -20 -36 -63 -115 -96 -176 -34 -62 -73 -138 -88 -170 -15
-33 -62 -131 -105 -219 -64 -131 -166 -364 -244 -555 -34 -83 -105 -271 -105
-278 0 -4 -14 -43 -31 -87 -123 -317 -208 -607 -284 -975 -61 -294 -80 -408
-90 -540 -4 -47 -9 -98 -12 -115 -11 -68 -11 -562 0 -617 13 -67 32 -79 23
-15 -14 103 -17 354 -4 461 7 61 13 134 13 163 0 28 3 49 6 47 6 -3 17 36 56
209 18 83 25 81 38 -10 4 -29 11 -55 15 -58 17 -10 25 49 41 300 11 179 32
284 88 445 16 47 44 132 61 190 42 136 146 418 206 555 265 612 462 1000 733
1445 49 80 239 374 271 419 12 17 32 23 110 31 171 19 306 70 499 190 166 103
264 176 371 278 46 45 87 79 91 76 4 -2 18 0 30 5 l24 8 -23 7 c-12 4 -22 12
-22 18 0 6 -11 8 -26 5 -36 -7 -67 24 -55 55 8 25 160 108 197 108 20 0 38 6
129 44 186 78 187 79 179 124 -4 20 -8 48 -9 62 -5 66 -7 75 -12 60 -9 -23
-54 -81 -96 -125 -33 -34 -37 -41 -23 -50 15 -11 7 -18 -66 -53 -19 -9 -5 19
28 56 79 91 178 250 172 279 -2 11 -26 -16 -68 -77 -36 -52 -67 -99 -69 -105
-6 -13 -62 -95 -84 -120 -9 -11 -22 -28 -29 -37 -7 -10 -49 -31 -93 -47 -126
-46 -152 -59 -174 -87 -29 -37 -27 -78 4 -103 l26 -19 -48 -45 c-78 -72 -236
-208 -263 -226 -14 -9 -33 -23 -42 -31 -22 -20 -278 -151 -338 -173 -72 -27
-159 -47 -224 -53 -54 -5 -59 -4 -44 9 10 7 56 21 104 31 47 9 114 31 147 48
158 79 344 277 439 466 37 73 52 92 127 155 195 163 440 431 417 454 -4 4 -24
-12 -44 -37 -145 -176 -390 -406 -518 -486 -17 -10 -72 -47 -122 -80 -91 -62
-229 -134 -332 -174 -30 -12 -77 -32 -105 -45 -147 -69 -210 -95 -226 -95 -10
0 -20 -4 -24 -9 -16 -26 -437 -127 -634 -152 -42 -5 -91 -12 -110 -15 -48 -9
-32 10 24 29 24 9 60 27 78 41 19 14 37 26 41 26 3 0 43 24 89 54 89 58 318
276 407 386 28 36 57 72 65 81 71 90 220 328 292 472 41 80 47 97 33 97 -12 0
-31 -27 -60 -82z m524 -685 c-137 -215 -327 -374 -499 -417 -38 -10 -63 -12
-69 -6 -7 7 -4 10 6 10 9 0 48 18 87 40 39 22 75 40 81 40 5 0 10 8 11 18 0
10 3 12 6 4 3 -9 12 -7 30 8 14 11 32 20 39 20 8 0 14 4 14 10 0 5 11 12 25
16 14 3 23 10 20 14 -3 4 2 10 10 14 8 3 15 15 15 26 0 13 7 20 20 20 11 0 20
7 20 15 0 8 -9 15 -20 15 -11 0 -20 -7 -20 -15 0 -8 -9 -15 -19 -15 -10 0 -21
7 -25 15 -4 11 1 15 19 15 15 0 25 6 25 15 0 7 8 19 18 24 9 6 12 11 5 11 -6
0 -29 -10 -50 -22 -21 -12 -33 -17 -28 -11 6 6 42 28 80 48 39 21 81 46 95 55
36 24 59 34 38 17 -19 -15 -25 -32 -8 -22 6 3 10 4 10 1 0 -9 -57 -36 -63 -30
-3 3 -19 -2 -37 -11 -25 -13 -29 -19 -20 -30 6 -8 18 -11 26 -8 9 3 14 -1 14
-13 0 -16 -2 -17 -10 -4 -5 8 -10 10 -10 5 0 -13 21 -35 33 -35 4 0 6 4 3 9
-3 5 1 11 9 15 8 3 15 10 15 17 0 6 10 19 23 30 19 16 19 18 5 19 -10 0 -18
-5 -18 -11 0 -5 -5 -7 -12 -3 -7 5 5 15 32 26 35 15 41 21 30 28 -12 8 -12 10
-1 10 7 0 11 6 8 14 -8 20 4 28 21 13 13 -10 15 -9 8 8 -4 11 -4 16 0 12 4 -4
13 2 21 13 31 44 21 16 -13 -37z m-116 -108 c-1 -14 -6 -25 -11 -25 -5 0 -7 7
-3 15 3 9 0 15 -10 15 -8 0 -12 5 -9 10 13 20 35 10 33 -15z m-194 -50 c-10
-8 -23 -15 -28 -15 -6 0 -1 7 10 15 10 8 23 15 28 15 6 0 1 -7 -10 -15z m-47
-29 c0 -8 -6 -12 -15 -8 -11 4 -13 1 -7 -8 5 -8 4 -11 -3 -6 -6 4 -28 0 -48
-9 -60 -25 -53 -16 11 15 33 16 60 29 61 29 0 1 1 -5 1 -13z m60 -1 c0 -8 -4
-12 -9 -9 -5 3 -6 10 -3 15 9 13 12 11 12 -6z m43 -29 c0 -2 -8 -10 -17 -17
-16 -13 -17 -12 -4 4 13 16 21 21 21 13z m-390 -56 c-8 -5 -19 -10 -25 -10 -5
0 -3 5 5 10 8 5 20 10 25 10 6 0 3 -5 -5 -10z m-69 -23 c-31 -16 -44 -50 -27
-72 11 -15 14 -15 27 -3 8 8 26 18 41 21 34 9 71 -23 66 -56 -3 -19 -9 -22
-45 -21 -37 1 -40 -1 -25 -12 15 -12 10 -14 -33 -15 -65 -3 -67 -3 -89 6 -14
6 -18 4 -14 -6 7 -22 80 -59 116 -59 19 0 32 -4 30 -10 -1 -5 -46 -71 -98
-145 -110 -157 -201 -299 -261 -405 -23 -41 -70 -120 -104 -175 -34 -55 -95
-163 -135 -240 -40 -77 -94 -181 -121 -231 -119 -226 -337 -740 -452 -1066
-40 -113 -90 -224 -71 -158 4 14 7 32 7 40 -6 90 -3 124 20 195 14 44 39 125
56 180 17 55 42 127 55 160 13 33 34 87 47 120 12 33 33 85 47 115 13 30 37
89 54 130 38 97 82 197 123 285 68 145 95 204 95 210 0 3 17 40 38 82 78 158
193 388 202 404 5 9 37 70 71 135 34 66 77 140 96 167 18 26 33 50 33 53 0 3
16 30 35 60 19 30 35 57 35 61 0 3 6 14 14 22 12 15 62 101 93 162 20 40 60
79 80 79 14 0 13 -3 -6 -13z m-378 -107 c-28 -30 -39 -38 -28 -20 3 6 -3 10
-14 10 -34 0 -24 17 17 28 55 15 56 14 25 -18z m450 -87 c-7 -2 -21 -2 -30 0
-10 3 -4 5 12 5 17 0 24 -2 18 -5z m-923 -317 c0 -2 -8 -10 -17 -17 -16 -13
-17 -12 -4 4 13 16 21 21 21 13z m-427 -320 c-10 -13 -20 -19 -22 -13 -2 5 4
16 15 24 26 19 27 16 7 -11z m-324 -120 c-2 -2 -15 -9 -29 -15 -24 -11 -24
-11 -6 3 16 13 49 24 35 12z m-69 -36 c-8 -5 -19 -10 -25 -10 -5 0 -3 5 5 10
8 5 20 10 25 10 6 0 3 -5 -5 -10z m490 -336 c0 -8 -5 -12 -10 -9 -6 4 -8 11
-5 16 9 14 15 11 15 -7z m-165 -105 c52 -46 58 -82 24 -150 -25 -51 -46 -68
-81 -69 -5 0 -8 56 -8 125 0 142 4 147 65 94z m-474 -1206 c-12 -20 -14 -14
-5 12 4 9 9 14 11 11 3 -2 0 -13 -6 -23z m-467 -35 c-81 -87 -197 -202 -169
-168 38 46 198 210 204 210 3 0 -13 -19 -35 -42z m-112 -399 c24 -12 74 -52
111 -88 l69 -66 -5 -275 c-4 -232 -27 -574 -40 -587 -6 -5 -128 223 -155 291
-13 33 -32 70 -43 81 -10 11 -30 47 -44 80 -15 33 -36 81 -47 107 -12 27 -29
55 -39 64 -72 65 -197 -197 -345 -721 -20 -72 -42 -155 -49 -185 -22 -94 -18
-12 15 278 36 320 54 444 86 578 29 126 37 147 79 209 45 66 224 252 250 258
37 10 113 -2 157 -24z m1033 -131 c-4 -35 -15 -100 -26 -144 -10 -45 -19 -90
-20 -100 0 -11 -3 -14 -5 -8 -4 10 23 191 42 287 10 50 16 28 9 -35z m-1214
-324 c26 -61 18 -66 -15 -10 -29 49 -31 56 -16 56 6 0 20 -21 31 -46z m-65 7
c-8 -9 -38 -66 -65 -126 -57 -124 -68 -129 -18 -9 39 95 78 164 90 157 5 -3 1
-13 -7 -22z m1215 -14 c-8 -8 -11 -5 -11 9 0 27 14 41 18 19 2 -9 -1 -22 -7
-28z"/>
<path d="M9316 4901 c-3 -5 1 -11 9 -15 8 -3 15 -1 15 4 0 13 -18 22 -24 11z"/>
<path d="M3060 5776 c0 -20 197 -106 242 -106 23 0 -28 29 -52 30 -14 0 -59
18 -100 40 -70 37 -90 45 -90 36z"/>
<path d="M258 5572 c-14 -31 -43 -112 -64 -179 l-38 -122 -69 -12 c-65 -12
-68 -14 -65 -38 3 -23 9 -27 53 -35 28 -5 51 -10 53 -11 1 -1 -2 -24 -9 -51
-18 -77 -38 -198 -34 -202 7 -8 23 37 51 144 l28 111 62 16 c37 10 101 17 157
17 51 0 141 3 199 6 90 6 105 9 101 23 -4 14 -27 16 -203 13 -216 -3 -280 5
-280 37 0 10 7 38 16 62 19 54 75 272 70 276 -1 2 -14 -23 -28 -55z"/>
<path d="M8515 5439 c-32 -32 -55 -59 -50 -59 6 0 3 -5 -5 -10 -8 -5 -10 -10
-4 -10 12 0 129 128 123 134 -2 2 -31 -23 -64 -55z m-5 -22 c0 -2 -10 -12 -22
-23 l-23 -19 19 23 c18 21 26 27 26 19z"/>
<path d="M8359 5300 c-41 -33 -123 -84 -183 -115 -60 -30 -107 -55 -103 -55
21 0 159 57 195 81 24 16 55 36 70 44 43 23 115 92 104 98 -5 4 -42 -20 -83
-53z m51 26 c0 -2 -8 -10 -17 -17 -16 -13 -17 -12 -4 4 13 16 21 21 21 13z"/>
<path d="M10935 5320 c3 -5 11 -10 16 -10 6 0 7 5 4 10 -3 6 -11 10 -16 10 -6
0 -7 -4 -4 -10z"/>
<path d="M10431 5256 c-28 -35 -51 -69 -51 -75 0 -6 24 4 53 23 48 31 52 37
54 75 1 22 0 41 -2 41 -2 0 -26 -29 -54 -64z"/>
<path d="M915 5269 c-16 -5 -67 -11 -112 -12 -74 -2 -83 -4 -83 -21 0 -16 6
-18 56 -12 31 3 87 1 125 -5 38 -6 72 -8 77 -5 5 3 7 19 4 36 -5 32 -15 35
-67 19z"/>
<path d="M10437 5122 c-27 -45 -51 -100 -54 -121 -3 -24 -10 -38 -17 -35 -10
4 -454 -877 -639 -1266 -30 -63 -85 -178 -122 -255 -97 -203 -177 -372 -242
-515 -97 -210 -128 -276 -135 -280 -4 -3 -17 -28 -29 -55 -12 -28 -31 -70 -42
-95 -33 -74 -77 -197 -126 -352 -44 -140 -72 -203 -57 -128 4 19 11 62 17 95
5 33 12 76 15 95 3 19 3 32 0 29 -6 -5 -34 -152 -60 -309 -26 -156 -53 -279
-85 -393 -28 -95 -80 -328 -96 -427 -3 -19 -10 -59 -15 -89 -12 -68 -12 -71 0
-71 16 0 30 45 56 184 13 70 26 132 29 136 3 4 7 28 10 53 3 26 12 65 20 88 9
23 18 66 22 96 3 29 10 56 15 59 5 3 6 -14 2 -38 l-6 -43 28 45 c15 25 35 55
45 68 17 22 18 22 24 3 4 -13 15 -20 28 -20 12 0 31 -2 42 -4 11 -3 23 -6 27
-6 13 -2 48 -89 55 -136 7 -57 23 -59 23 -2 0 23 5 81 10 127 6 47 13 108 16
135 17 163 106 606 183 920 61 247 74 265 45 63 -30 -211 -16 -776 21 -865 8
-17 19 -78 25 -135 17 -158 6 -156 137 -27 63 63 118 121 123 130 5 9 16 60
25 115 32 202 81 349 162 486 49 86 84 120 138 138 33 11 42 9 125 -31 50 -23
92 -40 93 -38 2 2 23 32 46 67 l42 62 -20 28 c-47 66 -223 217 -312 269 -68
39 -212 58 -354 45 -61 -5 -80 -11 -80 -22 0 -11 11 -15 47 -14 26 1 45 -2 42
-7 -3 -5 -12 -9 -20 -9 -8 0 -37 -22 -64 -50 -51 -50 -64 -46 -41 12 5 13 14
46 20 73 61 281 75 322 213 600 16 33 45 104 63 157 41 120 167 367 215 420
43 49 61 44 96 -26 24 -47 27 -66 35 -231 5 -99 17 -227 27 -285 l18 -105 12
60 c6 33 18 125 27 205 16 147 55 446 76 577 8 46 9 121 5 200 -11 226 -9 359
5 387 72 136 91 177 85 191 -3 9 3 34 15 56 11 22 19 53 17 67 -3 24 -9 16
-51 -56z m-624 -1467 c-3 -9 -8 -14 -10 -11 -3 3 -2 9 2 15 9 16 15 13 8 -4z
m-64 -154 c-6 -18 -13 -30 -15 -28 -2 2 1 18 7 36 6 18 13 30 15 28 2 -2 -1
-18 -7 -36z m-185 -254 c-9 -26 -19 -49 -24 -52 -4 -2 2 20 13 50 24 67 34 68
11 2z m-51 -102 c-3 -9 -8 -14 -10 -11 -3 3 -2 9 2 15 9 16 15 13 8 -4z m-77
-171 c-19 -38 -35 -66 -36 -62 0 11 63 138 68 134 2 -2 -13 -35 -32 -72z m41
-116 c-3 -7 -5 -2 -5 12 0 14 2 19 5 13 2 -7 2 -19 0 -25z m-99 -9 c-6 -16
-12 -28 -14 -26 -5 5 13 57 20 57 3 0 0 -14 -6 -31z m-30 -64 c-6 -14 -13 -23
-15 -21 -5 5 15 46 22 46 3 0 -1 -11 -7 -25z m-35 -80 c-3 -9 -8 -14 -10 -11
-3 3 -2 9 2 15 9 16 15 13 8 -4z m-34 -72 c-141 -323 -275 -679 -312 -828 -3
-13 -5 -10 -6 12 0 17 3 34 8 37 5 3 12 23 16 43 7 41 79 260 100 308 8 17 35
80 60 140 130 306 143 335 149 335 3 0 -4 -21 -15 -47z m-340 -942 c-12 -59
-23 -69 -14 -13 9 51 16 74 21 69 2 -2 -1 -27 -7 -56z"/>
<path d="M10336 5172 c-5 -9 -113 -64 -161 -83 -16 -6 -25 -13 -18 -16 6 -2
49 13 95 33 90 41 108 52 108 65 0 11 -17 12 -24 1z"/>
<path d="M2415 4933 c3 -48 11 -158 17 -243 18 -249 14 -884 -7 -1000 -1 -8
-6 -64 -9 -125 -4 -60 -11 -144 -16 -185 -5 -41 -12 -102 -15 -135 -4 -33 -13
-94 -22 -135 -8 -41 -19 -100 -24 -130 -38 -249 -57 -339 -119 -585 -120 -470
-127 -495 -124 -495 2 0 15 24 29 53 46 89 103 258 125 362 4 22 18 84 29 137
27 127 23 101 70 423 23 154 50 332 61 395 11 63 22 149 25 190 8 94 16 105
13 17 -1 -36 1 -69 4 -72 3 -3 14 25 24 62 10 37 25 75 34 83 9 8 19 22 23 30
4 10 6 8 7 -7 2 -13 4 -27 5 -33 1 -5 3 -34 5 -62 l2 -53 20 65 c20 67 46 106
55 83 3 -7 9 -13 15 -13 7 0 8 74 4 223 -6 238 -7 257 -16 257 -3 0 -6 10 -6
23 -1 12 -5 34 -8 50 -4 16 -2 27 4 27 6 0 8 5 5 10 -4 6 -11 8 -16 5 -5 -4
-10 11 -10 32 -2 44 -3 56 -18 143 -13 80 -14 137 -2 142 16 5 14 138 -1 138
-4 0 -8 9 -8 19 0 11 -9 26 -20 34 -12 8 -20 18 -18 23 4 14 -53 174 -62 174
-5 0 -10 -6 -13 -12 -2 -7 -10 27 -17 75 -7 48 -17 90 -22 93 -5 3 -6 -34 -3
-83z m62 -1010 c-3 -10 -5 -4 -5 12 0 17 2 24 5 18 2 -7 2 -21 0 -30z m-20
-350 c-3 -10 -5 -2 -5 17 0 19 2 27 5 18 2 -10 2 -26 0 -35z"/>
<path d="M1006 4860 c-4 -58 -9 -127 -11 -155 -3 -27 -7 -81 -10 -120 -10
-124 -25 -257 -41 -380 -9 -66 -18 -133 -20 -150 -2 -16 -9 -54 -14 -84 -6
-30 -10 -83 -10 -117 0 -34 -4 -64 -10 -66 -5 -1 -12 -16 -14 -33 -11 -86 -39
-164 -69 -193 -49 -47 -81 -46 -136 3 -21 19 -42 35 -45 35 -4 0 -27 -14 -52
-31 -25 -17 -67 -40 -94 -52 l-49 -22 57 -133 c44 -103 60 -131 72 -126 8 4
42 9 75 11 67 6 90 18 62 34 -25 15 -11 29 29 29 40 0 41 -5 15 -86 -42 -129
-73 -246 -66 -252 3 -3 7 -3 9 -1 4 5 71 212 116 359 17 58 35 114 40 125 4
11 15 47 23 80 8 33 43 175 79 315 36 140 72 289 81 330 61 276 65 303 48 369
-5 20 -17 99 -26 176 -31 257 -30 254 -39 135z"/>
<path d="M10416 4907 c4 -12 2 -17 -7 -15 -11 2 -14 -34 -17 -201 -2 -202 2
-262 10 -126 2 39 7 76 12 83 4 7 2 12 -6 12 -9 0 -10 3 -2 8 6 4 13 22 16 40
5 34 -6 32 -15 -3 -3 -11 -5 26 -6 83 -1 61 3 101 8 97 15 -9 25 15 12 28 -9
9 -11 8 -5 -6z"/>
<path d="M9736 4747 c-10 -23 -36 -92 -57 -153 -21 -62 -57 -161 -80 -220 -22
-60 -49 -138 -59 -174 -10 -36 -48 -153 -85 -260 -66 -194 -117 -353 -160
-505 -13 -44 -35 -120 -50 -170 -31 -102 -65 -235 -64 -250 1 -24 18 28 174
535 110 359 125 406 213 665 46 138 90 270 97 295 7 25 24 70 38 100 25 57 61
170 55 176 -2 1 -12 -16 -22 -39z"/>
<path d="M5475 4580 c11 -5 29 -9 40 -9 17 -1 17 1 5 9 -8 5 -26 9 -40 9 -23
0 -23 -1 -5 -9z"/>
<path d="M5576 4542 c-3 -6 -1 -14 5 -17 15 -10 25 3 12 16 -7 7 -13 7 -17 1z"/>
<path d="M486 4184 c-4 -14 -5 -29 -2 -31 3 -3 8 7 12 21 3 15 4 29 1 32 -2 3
-8 -7 -11 -22z"/>
<path d="M538 4138 c6 -110 -57 -259 -154 -367 -25 -28 -41 -51 -35 -51 19 0
127 114 148 155 53 104 79 240 57 293 -7 17 -14 32 -16 32 -2 0 -2 -28 0 -62z"/>
<path d="M370 4068 c-19 -5 -58 -8 -87 -6 -43 2 -53 0 -51 -12 6 -31 160 -18
188 16 15 17 3 17 -50 2z"/>
<path d="M1142 3708 c-34 -106 -121 -336 -148 -397 -14 -30 -50 -114 -80 -188
-30 -74 -75 -175 -99 -225 -40 -84 -47 -118 -24 -118 5 0 9 -5 9 -12 0 -22
155 -263 269 -418 l25 -34 17 79 c18 89 42 198 64 295 9 36 24 107 34 158 33
162 35 142 11 -148 -18 -211 -20 -234 -39 -355 -15 -97 -16 -123 -6 -133 13
-14 18 8 31 118 2 19 6 46 9 60 3 14 12 99 20 190 9 91 18 179 20 195 9 53 5
288 -5 350 -5 33 -16 114 -25 180 -34 279 -47 382 -50 424 -2 24 -5 45 -7 46
-2 2 -13 -28 -26 -67z m-24 -176 c-6 -23 -15 -42 -20 -42 -9 0 -5 18 14 69 14
37 18 20 6 -27z"/>
<path d="M2679 3708 c-5 -50 -4 -275 1 -245 9 47 13 257 5 257 -3 0 -6 -6 -6
-12z"/>
<path d="M6685 3590 c-3 -5 -2 -10 4 -10 5 0 13 5 16 10 3 6 2 10 -4 10 -5 0
-13 -4 -16 -10z"/>
<path d="M10322 3310 c0 -19 2 -27 5 -17 2 9 2 25 0 35 -3 9 -5 1 -5 -18z"/>
<path d="M10312 3230 c0 -19 2 -27 5 -17 2 9 2 25 0 35 -3 9 -5 1 -5 -18z"/>
<path d="M10302 3140 c0 -14 2 -19 5 -12 2 6 2 18 0 25 -3 6 -5 1 -5 -13z"/>
<path d="M10260 3010 c0 -5 5 -10 10 -10 6 0 10 5 10 10 0 6 -4 10 -10 10 -5
0 -10 -4 -10 -10z"/>
<path d="M10296 2818 c-13 -112 -14 -128 0 -145 12 -16 13 -4 14 85 0 107 -5
131 -14 60z"/>
<path d="M6925 1858 c-195 -540 -282 -1111 -240 -1573 8 -82 14 -153 15 -157
0 -5 10 -8 21 -8 20 0 21 3 14 52 -34 234 -30 547 11 853 29 220 107 571 178
798 8 26 13 47 10 47 -2 0 -7 -6 -9 -12z"/>
<path d="M4594 1222 c-52 -43 -81 -136 -144 -457 -38 -194 -79 -381 -114 -530
-8 -33 -12 -63 -8 -67 4 -3 48 -14 97 -23 50 -9 101 -19 114 -22 l24 -6 -7
244 c-12 461 -11 708 3 694 6 -6 12 -204 16 -475 3 -255 7 -465 8 -466 1 -1
24 -5 51 -9 l49 -8 -7 169 c-4 93 -9 205 -12 249 -9 147 -34 610 -34 633 0 20
-3 21 -20 12 -29 -15 -26 5 5 36 37 37 19 60 -21 26z"/>
</g>
</svg>
