<?xml version="1.0" encoding="UTF-8"?>
<svg width="311px" height="266px" viewBox="0 0 311 266" version="1.1" xmlns="http://www.w3.org/2000/svg" xmlns:xlink="http://www.w3.org/1999/xlink">
    <!-- Generator: Sketch 60.1 (88133) - https://sketch.com -->
    <title>宠物猫</title>
    <desc>Created with Sketch.</desc>
    <defs>
        <polygon id="path-1" points="0 0.7433 310.271 0.7433 310.271 265.999495 0 265.999495"></polygon>
    </defs>
    <g id="页面-1" stroke="none" stroke-width="1" fill="none" fill-rule="evenodd">
        <g id="画板" transform="translate(-1105.000000, -2771.000000)">
            <g id="宠物猫" transform="translate(1105.000000, 2770.000000)">
                <path d="M245.0645,173.9784 L245.0645,227.2934 C245.0645,227.2934 235.5855,236.4764 235.8815,240.0304 C236.1775,243.5844 240.9175,248.0284 245.0645,248.0284 C249.2105,248.0284 261.6515,234.1064 262.5405,232.0334 C263.4275,229.9594 272.6105,197.9704 272.6105,197.9704 L245.0645,173.9784 Z" id="Fill-1" fill="#EFDBD5"></path>
                <path d="M14.0308,235.8836 L82.4518,237.9566 C82.4518,237.9566 96.3738,224.3316 96.6698,223.1476 C96.9658,221.9626 81.2678,208.0406 81.2678,208.0406 L64.0878,211.0026 C64.0878,211.0026 38.9108,222.5546 35.9488,224.9246 C32.9878,227.2936 8.4028,225.2206 8.4028,225.2206 C8.4028,225.2206 -10.2572,232.6256 14.0308,235.8836" id="Fill-3" fill="#EFDBD5"></path>
                <polygon id="Fill-5" fill="#FA9389" points="68.8271 161.242 87.4871 160.65 73.8621 143.471 68.8271 143.471"></polygon>
                <g id="编组" transform="translate(0.000000, 0.257000)">
                    <mask id="mask-2" fill="white">
                        <use xlink:href="#path-1"></use>
                    </mask>
                    <g id="Clip-8"></g>
                    <path d="M89.2646,225.5563 C89.2646,225.5563 58.4606,243.9203 53.4246,245.1053 C48.3896,246.2893 23.2126,251.3253 7.5146,248.6603 C2.7756,248.3633 -5.2224,257.8413 4.8486,259.0263 C14.9196,260.2103 69.1236,261.6923 69.1236,261.6923 C69.1236,261.6923 104.6666,257.8413 126.5856,243.6233 C138.7296,248.6603 148.8006,250.1403 155.3166,250.1403 C161.8326,250.1403 199.1536,255.7683 243.8786,185.2733 C245.9516,182.3113 250.3956,185.5703 256.0236,190.9013 C261.6516,196.2333 268.4636,203.3413 270.5366,204.2303 C272.6106,205.1193 271.1286,247.1783 270.5366,249.5473 C269.9446,251.9173 258.3926,257.2483 267.5756,264.0613 C276.7566,270.8733 284.4576,257.8413 286.5316,253.9913 C288.6046,250.1403 309.3386,197.1203 310.2276,164.2433 C311.1166,131.3653 298.3786,102.9313 289.7896,85.4553 C281.2006,67.9793 240.6206,0.7433 184.0476,0.7433 C149.9846,0.7433 144.3576,39.2483 144.3576,39.2483 C144.3576,39.2483 143.4686,52.2813 152.0576,52.2813 C160.6486,52.2813 177.5316,27.9933 177.5316,27.9933 C177.5316,27.9933 183.4546,25.6233 187.3056,25.6233 C191.1566,25.6233 216.0366,22.9573 245.9516,63.8323 C236.4746,63.8323 216.9256,67.6833 204.4856,81.3083 C192.0446,94.9333 167.1636,153.2843 167.1636,153.2843 C167.1636,153.2843 157.9826,169.8703 145.5416,169.8703 C133.1016,169.8703 103.4816,163.9473 103.4816,163.9473 C103.4816,163.9473 77.7126,156.8383 72.0856,157.4313 C66.4576,158.0233 56.0906,166.9093 54.0166,176.9803 C51.9436,187.0503 46.6126,189.4203 46.6126,189.4203 C46.6126,189.4203 41.2806,195.9363 47.7976,203.6373 C54.3136,211.3383 66.1606,217.5593 70.0116,217.5593 C73.8626,217.5593 89.2646,225.5563 89.2646,225.5563" id="Fill-7" fill="#FFFAF8" mask="url(#mask-2)"></path>
                </g>
                <path d="M204.4854,81.5653 C192.0454,95.1903 167.1644,153.5413 167.1644,153.5413 C167.1644,153.5413 157.9824,170.1273 145.5424,170.1273 C141.2724,170.1273 134.9784,169.4303 128.5524,168.5133 C129.3274,170.9553 129.9904,173.9833 129.5474,176.3483 C128.6584,181.0873 119.1804,201.8213 121.2544,208.0413 C123.3274,214.2613 129.2514,225.8133 139.0264,224.9243 C148.8004,224.0363 165.0904,211.5953 176.9384,194.7123 C179.9004,189.6773 205.9654,184.3453 215.1484,175.4603 C224.3304,166.5743 239.7324,143.4703 239.1394,119.4783 C238.6414,99.2833 231.4264,75.3123 224.9164,68.2313 C217.7234,70.9323 210.3224,75.1723 204.4854,81.5653" id="Fill-9" fill="#FCCAC8"></path>
                <path d="M61.4224,192.6395 C61.4224,192.6395 65.5684,198.2665 78.6014,198.2665 C91.6344,198.2665 115.0334,184.9385 115.0334,176.9405 C115.0334,168.9435 85.7104,162.7235 74.4554,162.7235 C63.1994,162.7235 60.2374,180.1995 58.4604,180.4945 C56.6834,180.7905 54.3134,185.8275 61.4224,192.6395" id="Fill-11" fill="#FCCAC8"></path>
                <path d="M59.9414,189.5269 C59.3694,189.5269 58.9064,189.0639 58.9064,188.4919 C58.9064,188.2459 58.9924,188.0199 59.1354,187.8429 C59.1774,187.7259 59.2364,187.5369 59.2864,187.3779 C59.7644,185.8569 60.6534,183.0259 62.9474,182.4529 C65.5274,181.8099 70.9034,183.4639 71.5084,183.6549 C72.0534,183.8269 72.3554,184.4079 72.1834,184.9529 C72.0114,185.4989 71.4314,185.8019 70.8854,185.6289 C68.8154,184.9769 64.9694,184.0829 63.4504,184.4619 C62.2814,184.7539 61.5924,186.9449 61.2614,187.9989 C61.0034,188.8189 60.7804,189.5269 59.9414,189.5269 L59.9414,189.5269 Z" id="Fill-13" fill="#B25452"></path>
                <path d="M43.354,191.158 C43.947,190.269 46.909,191.454 47.205,192.639 C47.501,193.824 45.724,195.601 44.539,195.304 C43.354,195.009 42.762,192.047 43.354,191.158" id="Fill-15" fill="#B25452"></path>
                <path d="M85.1182,163.3153 C85.1182,163.3153 100.8162,175.1643 100.8162,174.5713 C100.8162,173.9783 101.4092,149.3943 101.4092,149.3943 L96.6692,150.2833 L85.1182,163.3153 Z" id="Fill-17" fill="#FA9389"></path>
            </g>
        </g>
    </g>
</svg>